<svg width="38" height="38" fill="none" xmlns="http://www.w3.org/2000/svg"><path fill-rule="evenodd" clip-rule="evenodd" d="M19 38c10.4934 0 19-8.5066 19-19C38 8.50659 29.4934 0 19 0 8.50659 0 0 8.50659 0 19c0 10.4934 8.50659 19 19 19Z" fill="#3DDC84"/><path d="M14.8072 21.3303c.6838 0 1.4036.2936 2.1954.9174.9717.7706 1.6195 1.1376 1.9794 1.1376.5399 0 .7918-.2936.7918-.844 0-.2936-.144-.5505-.4679-.7707-.1799-.11-1.0797-.477-2.7712-1.0642-2.7352-.9908-4.1028-2.789-4.1028-5.4679 0-2.0183.7198-3.5963 2.1594-4.7339C15.8869 9.51376 17.4344 9 19.3059 9c1.6195 0 3.0231.40367 4.2108 1.1743 1.1877.7707 1.7995 1.7982 1.7995 3.0459 0 .7339-.2159 1.3578-.6838 1.8715-.4679.5138-1.0437.734-1.7635.734-.7558 0-1.5836-.367-2.5193-1.1009-.5758-.4404-1.0077-.6973-1.2956-.6973-.5039 0-.7558.2569-.7558.734 0 .477.6118.9174 1.8715 1.2844 1.7275.5504 3.0231 1.211 3.9588 2.0183C25.3882 19.1284 26 20.5963 26 22.5046c0 2.0917-.6838 3.7064-2.0874 4.8807C22.617 28.4862 20.9254 29 18.838 29s-3.8149-.5505-5.1825-1.6881C12.5758 26.3945 12 25.367 12 24.156c0-.8074.2519-1.4679.7918-2.0184.5758-.5137 1.2236-.8073 2.0154-.8073Z" fill="#fff"/></svg>