<svg width="320" height="320" fill="none" xmlns="http://www.w3.org/2000/svg"><path opacity=".2" fill-rule="evenodd" clip-rule="evenodd" d="M319.996 159.628c0 3.732-.128 7.433-.38 11.101V320H.37947V170.709C.127871 167.048 0 163.353 0 159.628c0-3.724.127871-7.419.37947-11.081V81.125H.378982V.37859H81.0282v.000468h67.8568C152.557.127732 156.263 0 159.998 0c3.736 0 7.442.127732 11.113.379058h148.505V148.528c.252 3.668.38 7.369.38 11.1Zm-1.88-78.1244v53.5724c-2.971-19.201-9.372-37.2729-18.559-53.5724h18.559Zm0 67.0774c-1.68-24.276-8.851-47.044-20.283-67.0774h-57.367V159.25h77.65v-10.669Zm0-68.9555h-19.634c-13.956-23.9941-33.997-44.0275-58.015-57.9981V1.87906h77.649V79.6255Zm-21.372 0c-13.657-23.1845-33.069-42.5889-56.277-56.2599v56.2599h56.277ZM238.587 1.87906V20.551c-16.407-9.2479-34.613-15.68956-53.963-18.67194h53.963Zm0 20.39654C218.435 10.7747 195.51 3.56062 171.059 1.87906h-10.122V79.6255h77.65V22.2756ZM81.4084 1.87906h53.9646C116.022 4.86152 97.8153 11.3035 81.4084 20.5517V1.87906Zm67.5286 0C124.486 3.56066 101.56 10.775 81.4084 22.2764v57.3491h77.6496V1.87906h-10.121Zm-69.4088-.00047V21.6284C55.5106 35.5988 35.4703 55.6317 21.5147 79.625H1.87898V1.87859H79.5282Zm0 21.48801C56.3208 37.0375 36.9098 56.4413 23.2531 79.625h56.2751V23.3666ZM1.87947 81.5036H20.439C11.2512 97.8055 4.84988 115.88 1.87947 135.085V81.5036Zm0 79.6254v9.528c1.70816 24.737 9.11913 47.909 20.93073 68.218h56.7185v-77.746H1.87947Zm0 77.746v-54.703c3.03872 19.646 9.66793 38.11 19.19783 54.703H1.87947Zm0 1.879H22.1733c13.9243 23.496 33.7129 43.122 57.3554 56.875V318.5H1.87947v-77.746ZM81.4083 318.5v-19.795c18.9127 10.661 40.2177 17.593 62.9107 19.795H81.4083Zm0-21.52c22.9097 13.076 49.4037 20.61 77.6497 20.774v-77H81.4083v56.226ZM238.587 318.5h-62.909c22.692-2.202 43.996-9.134 62.909-19.794V318.5Zm-77.649-.746c28.245-.163 54.74-7.698 77.649-20.773v-56.227h-77.649v77Zm79.528.746v-20.871c23.643-13.752 43.433-33.379 57.357-56.875h20.293V318.5h-77.65Zm0-22.609c22.833-13.45 41.991-32.449 55.61-55.137h-55.61v55.137Zm0-57.016h56.72c11.809-20.303 19.219-43.469 20.93-68.199v-9.547h-77.65v77.746Zm77.65-54.695c-3.04 19.644-9.668 38.104-19.197 54.695h19.197V184.18ZM23.9202 240.754c13.6185 22.688 32.7761 41.687 55.6085 55.136v-55.136H23.9202ZM22.1638 81.5036C10.7283 101.542 3.55626 124.317 1.87947 148.6v10.65H79.5287V81.5036H22.1638Zm59.2445 0h77.6497v5.1192H99.0806V159.25H81.4083V81.5036Zm17.6723 79.6254H81.4083v77.746h77.6497v-77.746h-34.031v72.059H99.0806v-72.059Zm25.9464-1.879h34.031v-46.696h-34.031v46.696Zm35.911-72.6272H224.3V159.25h14.287V81.5036h-77.649v5.1192ZM224.3 161.129h14.287v77.746h-77.649v-77.746h37.415v72.059H224.3v-72.059Zm-25.947-1.879v-46.696h-37.415v46.696h37.415Z" fill="#fff"/></svg>